<svg width="512" height="427" viewBox="0 0 512 427" fill="none" xmlns="http://www.w3.org/2000/svg">
<path d="M469.333 64.001H362.667V42.667C362.667 19.136 343.532 0 320 0H192C168.469 0 149.333 19.135 149.333 42.667V64H42.667C19.135 64.001 0 83.136 0 106.667V170.667C0 194.199 19.135 213.334 42.667 213.334H213.334V202.667C213.334 196.771 218.105 192 224.001 192H288.001C293.897 192 298.668 196.771 298.668 202.667V213.334H469.335C492.865 213.334 512 194.199 512 170.667V106.667C512 83.136 492.865 64.001 469.333 64.001ZM320 64.001H192V42.667H320V64.001Z" fill="#3B3B3B"/>
<path d="M506.083 224.844C502.448 223.042 498.104 223.459 494.895 225.896C487.312 231.636 478.478 234.667 469.332 234.667H298.667V266.667C298.667 272.563 293.896 277.334 288 277.334H224C218.104 277.334 213.333 272.563 213.333 266.667V234.667H42.667C33.521 234.667 24.688 231.636 17.104 225.896C13.885 223.438 9.552 223.021 5.916 224.844C2.292 226.647 0 230.344 0 234.397V384.001C0 407.532 19.135 426.668 42.667 426.668H469.334C492.865 426.668 512.001 407.533 512.001 384.001V234.397C512 230.344 509.708 226.647 506.083 224.844Z" fill="#3B3B3B"/>
</svg>
