<svg width="336" height="336" viewBox="0 0 336 336" fill="none" xmlns="http://www.w3.org/2000/svg">
<g clip-path="url(#clip0)">
<path d="M0 4.99901C0 2.23759 2.23858 -0.000976562 5 -0.000976562H275.038C276.374 -0.000976562 277.654 0.533743 278.594 1.4839L333.636 57.1635C334.561 58.0995 335.08 59.3625 335.08 60.6786V330.079C335.08 332.84 332.841 335.079 330.08 335.079H4.99999C2.23857 335.079 0 332.84 0 330.079V4.99901Z" fill="#F1F1EF"/>
<path d="M226.441 276.178H108.639C103.218 276.178 98.8224 280.574 98.8224 285.995C98.8224 291.417 103.218 295.812 108.639 295.812H226.441C231.862 295.812 236.258 291.417 236.258 285.995C236.258 280.574 231.862 276.178 226.441 276.178Z" fill="#3B3B3B"/>
<path d="M226.441 197.644H108.639C103.218 197.644 98.8224 202.039 98.8224 207.461C98.8224 212.882 103.218 217.277 108.639 217.277H226.441C231.862 217.277 236.258 212.882 236.258 207.461C236.258 202.039 231.862 197.644 226.441 197.644Z" fill="#3B3B3B"/>
<path d="M226.441 236.911H108.639C103.218 236.911 98.8224 241.306 98.8224 246.728C98.8224 252.149 103.218 256.545 108.639 256.545H226.441C231.862 256.545 236.258 252.149 236.258 246.728C236.258 241.306 231.862 236.911 226.441 236.911Z" fill="#3B3B3B"/>
<path d="M216.624 -0.000976562H79.1888V85.0779H216.624V-0.000976562Z" fill="#3B3B3B"/>
<path d="M332.204 55.2309L279.848 2.87469C278.007 1.03371 275.51 -0.000976562 272.907 -0.000976562H236.258V94.8947C236.258 100.316 231.862 104.712 226.441 104.712H69.372C63.9505 104.712 59.5552 100.316 59.5552 94.8947V-0.000976562H9.8168C4.39531 -0.000976562 0 4.39433 0 9.81582V325.262C0 330.684 4.39531 335.079 9.8168 335.079C12.8567 335.079 321.181 335.079 325.263 335.079C330.685 335.079 335.08 330.684 335.08 325.262V62.1721C335.08 59.5687 334.045 57.0719 332.204 55.2309ZM255.891 315.445H79.1888V178.01H255.891V315.445Z" fill="#3B3B3B"/>
</g>
<defs>
<clipPath id="clip0">
<rect width="335.08" height="335.08" fill="white" transform="translate(0 -0.000976562)"/>
</clipPath>
</defs>
</svg>
