<svg width="336" height="336" viewBox="0 0 336 336" fill="none" xmlns="http://www.w3.org/2000/svg">
<g clip-path="url(#clip0)">
<path d="M307.396 13.9605H28.1634C12.77 13.9605 0.239868 26.4841 0.239868 41.884V237.348C0.239868 252.747 12.77 265.271 28.1634 265.271H125.926C125.633 276.409 123.506 294.224 115.519 302.636C112.588 305.718 109.234 307.156 104.952 307.156C101.094 307.156 97.9713 310.279 97.9713 314.137C97.9713 317.996 101.094 321.118 104.952 321.118H230.607C234.466 321.118 237.588 317.996 237.588 314.137C237.588 310.279 234.466 307.156 230.607 307.156C226.326 307.156 222.972 305.724 220.054 302.643C212.087 294.273 209.946 276.432 209.642 265.271H307.397C322.79 265.271 335.32 252.748 335.32 237.348V41.884C335.32 26.4841 322.79 13.9605 307.396 13.9605ZM167.78 251.35C160.063 251.35 153.777 245.064 153.777 237.347C153.777 229.63 160.063 223.344 167.78 223.344C175.497 223.344 181.783 229.63 181.783 237.347C181.783 245.064 175.497 251.35 167.78 251.35ZM28.1634 209.424V41.884H307.397L307.409 209.424H28.1634Z" fill="#3B3B3B"/>
</g>
<defs>
<clipPath id="clip0">
<rect width="335.08" height="335.08" fill="white" transform="translate(0.239868 -0.000976562)"/>
</clipPath>
</defs>
</svg>
