<svg width="504" height="519" viewBox="0 0 504 519" fill="none" xmlns="http://www.w3.org/2000/svg">
<ellipse cx="117.5" cy="108" rx="62.5" ry="63" fill="#F1F1EF"/>
<path d="M70.5 510.5C50.084 510.5 8.49983 471 11.9999 450C15.4999 429 41.4999 324 50.4999 273C59.4998 222 119 236 119 236C119 236 202 192 231 192.5C260 193 337.5 193 377 193C416.5 193 449.5 231 449.5 231C449.5 231 501 446.538 501 459C501 471.462 443 511 428 511.5C413 512 90.916 510.5 70.5 510.5Z" fill="#F1F1EF"/>
<path d="M503.061 451.488L455.701 238.272C454.549 233.056 450.869 228.8 445.909 226.848C440.917 224.896 435.317 225.568 430.965 228.576L276.949 335.2C272.341 338.4 269.749 343.744 270.101 349.28C270.421 354.88 273.653 359.872 278.581 362.464L479.925 469.088C482.293 470.336 484.853 470.976 487.413 470.976C490.837 470.976 494.261 469.888 497.109 467.68C502.069 463.904 504.405 457.6 503.061 451.488Z" fill="#ECB830"/>
<path d="M391.637 203.232C389.525 196.544 383.349 192 376.341 192H230.293C203.733 240.096 164.437 286.08 148.277 304.064C139.189 314.176 126.165 320 112.565 320C98.965 320 85.941 314.176 76.853 304.064C70.613 297.12 60.949 286.016 49.877 272.256L11.157 446.528C9.74898 452.96 12.405 459.584 17.845 463.264C20.533 465.088 23.669 465.984 26.773 465.984C29.973 465.984 33.141 465.056 35.893 463.136L385.429 221.12C391.221 217.184 393.685 209.92 391.637 203.232Z" fill="#ECB830"/>
<path d="M435.669 481.888L234.293 375.264C229.045 372.48 222.645 372.864 217.685 376.224L63.701 482.848C57.941 486.848 55.445 494.112 57.557 500.8C59.605 507.424 65.813 512 72.789 512H428.149C435.477 512 441.909 507.008 443.669 499.84C445.461 492.704 442.133 485.312 435.669 481.888Z" fill="#ECB830"/>
<path d="M112.565 0C50.805 0 0.565002 50.24 0.565002 112C0.565002 169.472 90.421 271.264 100.661 282.688C103.701 286.048 108.021 288 112.565 288C117.109 288 121.429 286.048 124.469 282.688C134.709 271.264 224.565 169.472 224.565 112C224.565 50.24 174.325 0 112.565 0ZM112.565 160C86.069 160 64.565 138.496 64.565 112C64.565 85.504 86.069 64 112.565 64C139.061 64 160.565 85.504 160.565 112C160.565 138.496 139.061 160 112.565 160Z" fill="#ECB830"/>
</svg>
