<svg width="336" height="336" viewBox="0 0 336 336" fill="none" xmlns="http://www.w3.org/2000/svg">
<g clip-path="url(#clip0)">
<path d="M328.61 84.0007L170.886 28.3519C168.773 27.6058 166.467 27.6058 164.354 28.3519L6.63103 84.0007C2.70955 85.3842 0.0851919 89.0884 0.0799563 93.2468C0.0747206 97.4052 2.69057 101.115 6.60878 102.508L164.332 158.58C165.395 158.958 166.508 159.147 167.62 159.147C168.733 159.147 169.844 158.958 170.908 158.58L328.631 102.508C332.549 101.115 335.165 97.4052 335.16 93.2468C335.155 89.0884 332.53 85.3842 328.61 84.0007V84.0007Z" fill="#3B3B3B"/>
<path d="M311.582 215.035V129.407L291.948 136.386V215.035C286.035 218.439 282.05 224.817 282.05 232.13C282.05 239.443 286.035 245.821 291.948 249.225V297.469C291.948 302.89 296.344 307.286 301.765 307.286C307.187 307.286 311.582 302.89 311.582 297.469V249.226C317.496 245.823 321.481 239.444 321.481 232.131C321.481 224.817 317.496 218.439 311.582 215.035Z" fill="#3B3B3B"/>
<path d="M167.62 178.781C164.25 178.781 160.931 178.208 157.755 177.079L69.0881 145.557V188.756C69.0881 199.325 80.1137 208.263 101.859 215.321C120.812 221.473 144.167 224.861 167.62 224.861C191.073 224.861 214.427 221.473 233.381 215.321C255.126 208.263 266.152 199.325 266.152 188.756V145.557L177.485 177.079C174.308 178.208 170.99 178.781 167.62 178.781V178.781Z" fill="#3B3B3B"/>
</g>
<defs>
<clipPath id="clip0">
<rect width="335.08" height="335.08" fill="white" transform="translate(0.0799561 -0.000976562)"/>
</clipPath>
</defs>
</svg>
