<svg width="336" height="336" viewBox="0 0 336 336" fill="none" xmlns="http://www.w3.org/2000/svg">
<g clip-path="url(#clip0)">
<path d="M94.6411 76.7882C86.9343 76.7882 80.6794 70.5334 80.6794 62.8265V13.9607C80.6794 6.25385 86.9343 -0.000976562 94.6411 -0.000976562C102.348 -0.000976562 108.603 6.25385 108.603 13.9607V62.8265C108.603 70.5334 102.348 76.7882 94.6411 76.7882Z" fill="#3B3B3B"/>
<path d="M160.959 76.7882C153.252 76.7882 146.997 70.5334 146.997 62.8265V13.9607C146.997 6.25385 153.252 -0.000976562 160.959 -0.000976562C168.666 -0.000976562 174.921 6.25385 174.921 13.9607V62.8265C174.921 70.5334 168.666 76.7882 160.959 76.7882Z" fill="#3B3B3B"/>
<path d="M227.277 76.7882C219.57 76.7882 213.315 70.5334 213.315 62.8265V13.9607C213.315 6.25385 219.57 -0.000976562 227.277 -0.000976562C234.984 -0.000976562 241.239 6.25385 241.239 13.9607V62.8265C241.239 70.5334 234.984 76.7882 227.277 76.7882Z" fill="#3B3B3B"/>
<path d="M255.2 31.4128H66.7178C45.538 31.4128 28.3232 48.6275 28.3232 69.8074V296.684C28.3232 317.864 45.538 335.079 66.7178 335.079H255.2C276.38 335.079 293.595 317.864 293.595 296.684V69.8074C293.595 48.6275 276.38 31.4128 255.2 31.4128ZM98.1316 111.692H167.94C175.647 111.692 181.902 117.947 181.902 125.654C181.902 133.361 175.647 139.616 167.94 139.616H98.1316C90.4247 139.616 84.1699 133.361 84.1699 125.654C84.1699 117.947 90.4247 111.692 98.1316 111.692ZM237.748 251.309H98.1316C90.4247 251.309 84.1699 245.054 84.1699 237.347C84.1699 229.641 90.4247 223.386 98.1316 223.386H237.748C245.455 223.386 251.71 229.641 251.71 237.347C251.71 245.054 245.455 251.309 237.748 251.309ZM237.748 195.462H98.1316C90.4247 195.462 84.1699 189.208 84.1699 181.501C84.1699 173.794 90.4247 167.539 98.1316 167.539H237.748C245.455 167.539 251.71 173.794 251.71 181.501C251.71 189.208 245.455 195.462 237.748 195.462Z" fill="#3B3B3B"/>
</g>
<defs>
<clipPath id="clip0">
<rect width="335.08" height="335.08" fill="white" transform="translate(0.399902 -0.000976562)"/>
</clipPath>
</defs>
</svg>
