<svg width="512" height="512" viewBox="0 0 512 512" fill="none" xmlns="http://www.w3.org/2000/svg">
<path d="M256 512C397.385 512 512 397.385 512 256C512 114.615 397.385 0 256 0C114.615 0 0 114.615 0 256C0 397.385 114.615 512 256 512Z" fill="#ECB830"/>
<path d="M108.014 235.661L354.841 140.493C366.297 136.355 376.302 143.288 372.59 160.611L372.612 160.589L330.585 358.584C327.47 372.621 319.129 376.035 307.46 369.421L243.46 322.253L212.59 351.992C209.177 355.405 206.297 358.285 199.684 358.285L204.228 293.155L322.841 185.997C328.004 181.453 321.689 178.893 314.884 183.416L168.302 275.704L105.113 255.992C91.3956 251.64 91.0969 242.275 108.014 235.661Z" fill="#F1F1EF"/>
</svg>
